# xmcd CD database file
#
# Track frame offsets:
#	150
#	16730
#	30275
#	41497
#	53797
#	64530
#	82342
#	93865
#	105555
#	120972
#	137590
#	157797
#	172750
#	183334
#	198012
#	209695
#
# Disc length: 2954 seconds
#
# Revision: 3
# Processed by: cddbd v1.5.1PL0 Copyright (c) Steve Scherf et al.
# Submitted via: CDex 1.51
#
DISCID=b90b8810
DTITLE=Errol Dixon - Mister Boogie Woogie
DYEAR=1994
DGENRE=Blues
TTITLE0=The Devil Dance The Blues
TTITLE1=Mr. Jazz
TTITLE2=Downstairs
TTITLE3=Lonesome Road
TTITLE4=Blues From Cuba
TTITLE5=Stay With Me Baby
TTITLE6=I Feel So Good
TTITLE7=Got The Blues
TTITLE8=Jack The Ripper
TTITLE9=Humming The Blues
TTITLE10=A Closer Walk With Thee
TTITLE11=I Feel Good
TTITLE12=Errol´s Boogie Woogie
TTITLE13=Lonely Moon
TTITLE14=Sad And Lonely
TTITLE15=Baby Come Back
EXTD=YEAR: 1994
EXTT0=
EXTT1=
EXTT2=
EXTT3=
EXTT4=
EXTT5=
EXTT6=
EXTT7=
EXTT8=
EXTT9=
EXTT10=
EXTT11=
EXTT12=
EXTT13=
EXTT14=
EXTT15=
PLAYORDER=
